<?xml version="1.0" standalone="no"?>
<!DOCTYPE svg PUBLIC "-//W3C//DTD SVG 20010904//EN"
 "http://www.w3.org/TR/2001/REC-SVG-20010904/DTD/svg10.dtd">
<svg version="1.0" xmlns="http://www.w3.org/2000/svg"
 width="300.000000pt" height="207.000000pt" viewBox="0 0 300.000000 207.000000"
 preserveAspectRatio="xMidYMid meet">
<metadata>
Created by potrace 1.10, written by Peter Selinger 2001-2011
</metadata>
<g transform="translate(0.000000,207.000000) scale(0.100000,-0.100000)"
fill="#000000" stroke="none">
<path d="M1073 2060 c-18 -4 -39 -12 -45 -17 -7 -6 -41 -16 -76 -22 -83 -16
-142 -42 -219 -97 -75 -53 -123 -122 -148 -209 -22 -79 -28 -89 -54 -93 -12
-2 -43 -25 -69 -51 -28 -29 -66 -55 -94 -65 -77 -28 -138 -118 -138 -203 0
-44 -4 -50 -38 -75 -71 -50 -142 -120 -142 -139 0 -44 117 -236 133 -220 6 6
18 11 27 11 8 -1 -2 -10 -22 -21 -38 -20 -42 -25 -40 -66 1 -20 -2 -21 -18
-11 -23 15 -70 -13 -70 -42 0 -13 -7 -20 -19 -20 -65 0 -38 -125 40 -181 16
-11 36 -22 43 -23 7 -1 25 -10 40 -19 26 -18 57 -16 82 4 6 5 26 11 45 13 19
2 42 14 55 29 31 37 54 46 115 46 30 0 73 6 96 14 25 9 63 12 95 10 44 -4 58
-11 84 -38 38 -40 77 -49 177 -43 75 5 152 34 194 71 13 11 24 19 25 16 2 -2
2 -77 0 -166 l-3 -162 -37 16 c-25 11 -66 17 -127 17 -160 -1 -279 -52 -344
-151 -38 -56 -38 -73 -6 -112 33 -39 82 -54 170 -53 89 1 174 30 319 108 89
48 111 65 122 92 13 31 12 33 -11 44 l-24 11 -3 201 c-2 110 -2 203 -1 205 1
2 16 -8 32 -22 17 -14 53 -33 81 -42 l51 -17 -3 -151 -3 -152 -37 -20 c-41
-21 -44 -31 -27 -68 14 -30 252 -147 351 -173 79 -20 152 -15 215 16 71 34 82
81 34 147 -59 82 -145 125 -282 141 -66 8 -92 6 -176 -13 -23 -5 -23 -5 -23
130 l0 135 44 0 c61 0 164 34 204 68 l34 28 32 -32 c19 -19 54 -38 86 -48 49
-15 58 -15 113 1 73 20 152 88 185 159 36 77 37 78 65 92 63 31 97 103 97 207
0 75 -30 131 -83 160 -28 15 -40 29 -47 57 -6 20 -15 40 -20 43 -20 12 1 24
25 15 57 -22 247 -50 337 -50 96 0 97 0 114 -29 23 -39 58 -55 78 -36 8 8 16
20 18 27 3 8 12 4 26 -10 12 -12 28 -22 35 -23 6 -1 30 -3 52 -6 62 -8 80 -6
111 8 22 11 30 22 32 48 2 22 13 42 31 57 24 20 28 30 25 66 -2 23 -8 46 -13
51 -5 5 -3 20 5 37 17 32 8 64 -25 94 -23 21 -92 26 -150 11 -33 -8 -34 -7
-27 16 17 55 19 129 3 152 -24 37 -70 52 -107 37 -47 -19 -53 -41 -30 -100 27
-68 25 -90 -11 -158 -16 -31 -28 -64 -26 -73 3 -12 -1 -15 -20 -11 -33 6 -43
-11 -43 -72 l0 -49 -102 6 c-91 6 -172 18 -286 44 -32 8 -34 10 -37 60 -7 103
-81 199 -161 210 l-39 5 -1 57 c-1 83 -34 149 -109 220 -111 103 -247 154
-348 130 -51 -12 -120 -51 -146 -83 -21 -25 -65 -19 -118 14 -26 17 -52 30
-59 30 -6 0 -14 14 -17 30 -4 17 -10 30 -14 29 -5 -1 -23 -5 -40 -9z m36 -42
c10 -27 5 -35 -29 -41 -14 -3 -38 -10 -54 -16 -34 -14 -39 -11 -31 20 6 24 56
57 88 58 10 1 22 -9 26 -21z m562 -40 c102 -50 169 -112 201 -185 34 -76 44
-156 23 -176 -13 -14 -13 -16 5 -22 11 -4 31 -23 45 -43 14 -20 25 -30 25 -22
0 9 -11 32 -25 53 -25 36 -25 37 -5 37 77 0 159 -110 160 -214 0 -35 -7 -62
-26 -93 -28 -49 -26 -70 4 -33 l19 23 11 -33 c7 -18 12 -53 12 -77 0 -27 4
-42 10 -38 6 3 10 17 10 31 0 13 3 24 6 24 19 0 47 -26 66 -63 44 -85 17 -228
-53 -278 l-29 -20 0 30 c0 17 -4 31 -10 31 -5 0 -10 -15 -10 -34 0 -78 -52
-164 -132 -220 -90 -61 -170 -61 -239 1 -22 20 -39 45 -39 56 0 18 -6 15 -42
-20 -63 -62 -127 -87 -219 -87 -68 -1 -83 3 -153 37 -68 34 -76 41 -70 60 5
18 0 16 -29 -12 -20 -19 -34 -38 -31 -42 2 -4 -1 -11 -7 -15 -8 -4 -9 -3 -5 4
12 19 -4 14 -54 -18 -66 -42 -124 -60 -194 -60 -79 1 -131 24 -185 86 -39 45
-43 44 -25 -1 4 -11 0 -15 -15 -15 -40 0 -82 30 -102 73 -10 23 -19 34 -19 24
0 -11 7 -35 17 -54 14 -30 14 -36 2 -44 -12 -7 -80 -17 -149 -22 -14 -1 -31
-5 -38 -10 -6 -5 -12 -7 -12 -4 0 3 -15 -10 -34 -29 -24 -24 -43 -34 -65 -34
-17 0 -40 -5 -50 -12 -30 -18 -98 8 -148 57 -58 57 -72 125 -25 125 29 0 50
-30 63 -89 6 -29 13 -50 17 -47 3 3 12 0 20 -7 8 -6 13 -7 11 -2 -37 78 -41
93 -36 133 7 64 67 117 150 133 48 8 120 -20 138 -53 11 -21 8 -109 -5 -143
-7 -17 -5 -17 13 4 16 17 21 37 21 78 0 50 -3 58 -37 92 -21 20 -47 50 -60 68
l-22 32 31 26 c17 14 28 28 25 31 -3 3 -20 -8 -38 -24 -19 -16 -41 -27 -49
-25 -8 2 -3 -5 13 -17 25 -20 54 -60 43 -60 -3 0 -16 12 -30 27 -17 18 -35 26
-56 26 -29 0 -31 3 -25 26 8 33 65 119 84 126 8 3 25 -2 38 -11 36 -23 43 -6
8 19 -57 41 -82 72 -100 126 l-17 54 33 26 c18 14 53 40 78 56 47 32 70 59 58
71 -7 7 -105 -53 -145 -90 l-24 -21 8 40 c11 62 23 87 57 123 33 35 95 72 120
72 7 0 25 17 38 37 29 45 87 82 99 63 9 -15 15 -5 25 40 14 69 71 174 119 223
48 48 177 117 244 132 l34 7 -16 -31 c-9 -16 -16 -39 -16 -49 0 -17 4 -17 56
10 31 15 70 28 86 28 16 0 31 6 34 15 5 12 14 10 53 -10 26 -13 53 -30 60 -39
16 -19 58 -12 81 13 8 9 28 27 43 41 l29 25 -7 -27 c-6 -25 -4 -28 17 -28 33
0 89 -19 111 -38 16 -14 17 -13 17 12 0 17 -11 39 -30 58 -37 36 -54 29 -19
-8 l24 -26 -27 6 c-16 3 -39 8 -53 11 -27 6 -35 39 -12 48 6 3 48 4 92 3 70
-1 89 -6 156 -38z m1089 -243 c20 -21 22 -30 16 -77 -4 -29 -8 -64 -9 -78 -2
-28 -4 -27 103 -14 47 5 59 3 83 -16 34 -27 35 -59 2 -90 -35 -33 -124 -35
-156 -4 -26 27 -19 58 19 79 17 9 21 14 11 15 -23 0 -69 -38 -69 -59 0 -9 7
-27 16 -39 14 -20 13 -25 -2 -57 -9 -20 -25 -40 -36 -46 -11 -6 -17 -13 -14
-16 3 -4 15 2 27 13 19 17 21 17 30 1 14 -24 48 -40 99 -47 36 -4 46 -9 48
-27 4 -29 -33 -53 -83 -53 -46 1 -70 16 -84 52 -7 19 -6 31 5 47 8 11 11 21 7
21 -18 0 -33 -25 -33 -55 0 -17 5 -36 12 -43 9 -9 9 -12 -2 -12 -7 0 -29 17
-49 38 l-36 38 0 -36 c0 -52 -33 -53 -72 -3 -24 30 -31 48 -32 89 -1 83 38 97
71 26 16 -32 17 -33 11 -7 -13 54 -7 99 20 156 32 67 32 70 8 141 -23 66 -15
88 33 88 22 0 40 -8 56 -25z m214 -321 c22 -59 -8 -94 -81 -94 -63 0 -96 25
-91 68 3 26 6 27 61 28 32 1 61 5 64 8 12 12 41 6 47 -10z m-2684 -339 c19
-20 19 -21 -14 -47 -19 -15 -45 -50 -59 -78 l-26 -51 -25 43 c-14 24 -36 69
-50 100 l-25 56 67 55 67 54 23 -55 c12 -31 31 -65 42 -77z m6 -220 c18 -14
18 -14 -4 -15 -13 0 -46 -10 -73 -21 -61 -27 -75 -17 -31 22 36 32 77 38 108
14z m-179 -128 c-14 -42 -23 -47 -33 -15 -5 16 -1 27 16 40 13 10 24 17 26 16
1 -2 -3 -20 -9 -41z m1268 -137 c3 -5 2 -10 -4 -10 -5 0 -13 5 -16 10 -3 6 -2
10 4 10 5 0 13 -4 16 -10z m-222 -257 c4 -31 2 -53 -3 -53 -6 0 -10 26 -10 57
0 68 5 67 13 -4z m221 -18 c3 -8 1 -15 -4 -15 -6 0 -10 7 -10 15 0 8 2 15 4
15 2 0 6 -7 10 -15z m132 -20 c-11 -8 -17 -17 -14 -20 3 -3 16 4 31 15 14 11
33 20 44 20 15 -1 13 -5 -10 -26 -23 -20 -37 -24 -68 -20 -46 5 -43 -10 4 -19
17 -4 47 -11 65 -17 l34 -10 -34 -29 c-18 -15 -39 -28 -46 -29 -7 0 -57 19
-112 42 l-101 42 36 18 c36 19 135 46 170 47 20 0 20 0 1 -14z m-539 -20 c25
-22 26 -24 8 -24 -11 0 -33 11 -50 24 -28 23 -28 25 -8 25 12 0 35 -11 50 -25z
m104 9 c30 -8 67 -20 83 -26 l28 -11 -38 -20 c-22 -11 -70 -33 -108 -49 l-69
-28 -33 25 c-19 15 -34 30 -34 34 0 4 30 16 67 26 51 14 62 20 47 25 -11 4
-26 15 -33 24 -12 14 -10 16 11 16 13 0 49 -7 79 -16z m541 -15 c-26 -19 -49
-29 -59 -25 -13 5 -10 11 17 31 19 14 45 25 59 25 23 0 22 -2 -17 -31z m-700
0 c27 -19 28 -23 13 -31 -12 -7 -24 -4 -43 13 -15 13 -31 27 -36 31 -23 19 39
6 66 -13z m739 -10 c-23 -16 -47 -29 -53 -27 -12 4 62 58 81 58 8 0 -5 -14
-28 -31z m-794 -5 c49 -37 34 -40 -23 -5 -30 20 -41 31 -29 31 10 0 33 -12 52
-26z m908 -3 c28 -16 57 -37 65 -46 13 -15 12 -19 -8 -36 -33 -26 -120 -41
-194 -33 -35 3 -69 10 -76 14 -9 4 13 27 69 68 45 34 85 62 88 62 3 0 29 -13
56 -29z m-933 -18 c66 -46 108 -79 108 -86 0 -11 -143 -28 -182 -22 -59 10
-108 31 -108 48 0 23 90 95 121 97 4 0 31 -17 61 -37z m538 -37 c105 -45 171
-66 240 -76 84 -12 181 4 219 35 l27 24 11 -29 c23 -60 -41 -100 -161 -100
-92 0 -170 23 -301 90 -94 48 -125 71 -125 93 0 6 5 6 13 0 6 -5 41 -22 77
-37z m-170 26 c0 -16 -34 -40 -130 -90 -131 -70 -203 -92 -295 -92 -79 0 -116
12 -148 48 -13 14 -16 28 -11 46 7 29 16 33 33 12 17 -20 95 -39 160 -39 78 1
168 26 281 77 103 48 110 50 110 38z"/>
<path d="M1326 1921 c-4 -5 -2 -12 4 -16 11 -7 14 -64 4 -89 -3 -8 -13 -12
-22 -9 -13 4 -14 2 -4 -4 10 -8 11 -15 1 -36 l-12 -26 -27 42 c-96 151 -253
152 -333 3 -18 -34 -22 -57 -22 -136 0 -84 3 -101 27 -146 89 -168 256 -186
341 -36 l24 42 13 -26 c8 -14 34 -37 58 -51 84 -50 180 -16 239 85 24 41 28
58 28 127 0 99 -27 163 -85 202 -56 36 -105 40 -161 11 l-47 -24 5 36 c5 36
-18 73 -31 51z m-150 -60 c74 -45 116 -136 117 -252 1 -86 -24 -151 -74 -193
-83 -70 -205 -22 -263 103 -32 70 -30 210 4 271 14 24 40 55 59 67 43 29 113
31 157 4z m389 -44 c51 -50 69 -107 62 -188 -15 -166 -164 -260 -265 -167 -38
36 -53 73 -47 115 3 21 2 61 -4 88 -9 45 -7 55 17 100 36 66 80 95 145 95 45
0 53 -4 92 -43z"/>
<path d="M1090 1685 c-20 -24 -23 -88 -7 -128 13 -29 22 -37 41 -37 32 0 46
26 46 87 0 75 -45 120 -80 78z m60 -31 c15 -37 12 -76 -6 -102 -13 -19 -18
-21 -31 -10 -31 25 -39 88 -11 88 6 0 5 -6 -2 -15 -18 -22 15 -72 36 -54 16
13 18 67 3 89 -8 11 -12 12 -16 3 -6 -15 -33 -17 -33 -3 0 6 7 10 15 10 8 0
15 5 15 10 0 20 21 9 30 -16z m-17 -69 c-7 -21 -13 -19 -13 6 0 11 4 18 10 14
5 -3 7 -12 3 -20z"/>
<path d="M1025 1460 c10 -11 20 -20 23 -20 3 0 -3 9 -13 20 -10 11 -20 20 -23
20 -3 0 3 -9 13 -20z"/>
<path d="M1128 1413 c6 -2 18 -2 25 0 6 3 1 5 -13 5 -14 0 -19 -2 -12 -5z"/>
<path d="M1366 1688 c-20 -28 -20 -78 -2 -123 29 -68 86 -30 86 55 0 78 -49
118 -84 68z m62 -19 c15 -29 9 -96 -10 -116 -12 -12 -17 -11 -33 7 -20 22 -30
80 -13 80 6 0 7 -7 4 -16 -4 -9 1 -28 10 -42 16 -24 17 -25 30 -7 17 22 18 59
4 86 -12 22 -32 26 -24 4 4 -9 0 -15 -10 -15 -19 0 -20 4 -4 30 16 24 29 21
46 -11z m-22 -76 c-11 -11 -19 6 -11 24 8 17 8 17 12 0 3 -10 2 -21 -1 -24z"/>
<path d="M750 1855 c-24 -25 -42 -45 -39 -45 3 0 25 20 49 45 24 25 42 45 39
45 -3 0 -25 -20 -49 -45z"/>
<path d="M660 1730 c-6 -11 -8 -20 -6 -20 3 0 10 9 16 20 6 11 8 20 6 20 -3 0
-10 -9 -16 -20z"/>
<path d="M522 1535 c-22 -25 -38 -45 -34 -45 4 0 25 20 45 45 21 25 36 45 34
45 -2 0 -22 -20 -45 -45z"/>
<path d="M666 1465 c-14 -13 -26 -31 -26 -40 0 -10 10 -4 29 17 l29 32 13 -59
c8 -37 29 -83 56 -123 28 -42 44 -79 48 -110 17 -121 63 -218 139 -290 92 -88
159 -108 252 -76 39 13 48 13 56 2 7 -9 8 -8 6 7 -3 13 -11 19 -24 18 -14 -2
-25 6 -32 22 -6 13 -23 27 -37 31 -49 12 -22 91 29 82 15 -3 24 -3 21 0 -2 3
0 11 7 19 8 10 8 17 -1 26 -10 9 -12 8 -9 -7 4 -23 -13 -28 -185 -54 l-118
-18 -25 42 c-27 47 -67 175 -62 200 2 12 16 6 58 -24 30 -22 73 -48 95 -59
221 -112 586 -42 772 149 54 56 156 198 148 206 -3 3 -7 3 -8 1 -2 -2 -30 -40
-62 -84 -114 -155 -191 -213 -360 -270 -44 -14 -119 -31 -167 -37 -75 -10
-100 -9 -173 7 -190 40 -357 172 -400 318 -21 71 -20 86 7 79 14 -3 19 -2 14
6 -12 20 -62 13 -90 -13z m466 -541 c-4 -36 -32 -49 -32 -15 0 11 -2 25 -5 33
-3 8 3 13 18 14 20 1 22 -2 19 -32z m-52 2 c0 -23 -11 -46 -20 -41 -5 3 -11 1
-15 -5 -10 -16 -21 -12 -56 18 l-33 27 35 6 c62 11 89 10 89 -5z m117 -64 c17
-22 16 -29 -3 -36 -20 -8 -92 -8 -121 0 -29 8 -30 30 -2 44 16 9 26 8 44 -4
29 -19 44 -21 27 -4 -7 7 -12 16 -12 21 0 14 52 -2 67 -21z"/>
<path d="M379 1423 c-13 -16 -12 -17 4 -4 9 7 17 15 17 17 0 8 -8 3 -21 -13z"/>
<path d="M531 1394 c-23 -29 -27 -77 -11 -119 8 -21 5 -33 -16 -64 -28 -44
-41 -101 -27 -126 8 -13 11 -6 16 33 9 73 31 109 82 134 54 26 60 43 9 22 -30
-13 -38 -13 -45 -2 -15 23 -10 100 8 120 9 10 14 21 11 24 -3 3 -15 -7 -27
-22z"/>
<path d="M2040 1164 c0 -3 9 -17 20 -31 24 -31 26 -90 4 -121 -8 -12 -11 -22
-5 -22 6 0 16 11 23 25 13 24 15 24 36 9 17 -12 22 -25 22 -62 0 -33 3 -43 11
-35 20 20 0 91 -32 115 -21 16 -29 30 -29 53 0 31 -24 75 -41 75 -5 0 -9 -3
-9 -6z"/>
<path d="M880 1088 c0 -28 2 -49 4 -47 8 9 13 99 5 99 -5 0 -9 -23 -9 -52z"/>
<path d="M590 1018 c-11 -18 -23 -49 -26 -68 -4 -19 -17 -48 -30 -63 -13 -16
-24 -35 -24 -43 0 -23 10 -16 21 16 15 41 31 38 51 -10 9 -22 21 -40 27 -40 5
0 1 21 -11 46 -25 57 -21 118 11 163 12 17 17 31 12 31 -6 0 -20 -15 -31 -32z"/>
<path d="M1070 1014 c0 -21 4 -33 10 -29 6 3 10 19 10 36 0 16 -4 29 -10 29
-5 0 -10 -16 -10 -36z"/>
<path d="M1860 900 c-16 -30 -69 -60 -107 -60 -19 0 -43 10 -62 26 -17 14 -31
22 -31 16 0 -15 34 -41 71 -54 19 -6 40 -20 47 -30 28 -39 121 -64 137 -38 4
6 -12 10 -40 10 -37 0 -51 5 -71 27 l-25 27 35 18 c35 18 74 63 63 74 -3 3
-11 -4 -17 -16z"/>
<path d="M331 776 c12 -21 25 -66 29 -100 7 -60 7 -60 9 -13 1 50 -15 98 -44
132 -9 11 -7 3 6 -19z"/>
<path d="M780 630 c8 -5 20 -10 25 -10 6 0 3 5 -5 10 -8 5 -19 10 -25 10 -5 0
-3 -5 5 -10z"/>
<path d="M858 603 c7 -3 16 -2 19 1 4 3 -2 6 -13 5 -11 0 -14 -3 -6 -6z"/>
<path d="M2898 1343 c7 -3 16 -2 19 1 4 3 -2 6 -13 5 -11 0 -14 -3 -6 -6z"/>
</g>
</svg>
